# xmcd
#
# Track frame offsets:
#	150
#	19431
#	32667
#	49879
#	66417
#	84790
#	100647
#	117199
#	132069
#	148981
#	162083
#
# Disc length: 2330
#
# Revision: 1
# Processed by: cddbd v1.5.1PL0 Copyright (c) Steve Scherf et al.
# Submitted via: VisiTrax 2.9.5.180 - For more info visit www.synapsa.com
# Normalized: r0:DSETVAR1
#
DISCID=9009180b
DTITLE=Various Artist - CDX 251 October 2000
DYEAR=2000
DGENRE=
TTITLE0=Randy travis - Down with the old man (up with the new)
TTITLE1=Chris LeDoux - He rides the wild horses
TTITLE2=McAlyster - I know how the river feels
TTITLE3=Whites - I miss who I was (with you)
TTITLE4=SHeDaisy - Lucky 4 you
TTITLE5=Collin Raye - She's all that
TTITLE6=Jessica Andrews - Who I am
TTITLE7=Lee Greenwood - You
TTITLE8=Toby Keith - You shouldn't kiss me like this
TTITLE9=Michael McGrew - I's like to be the man (my dog thinks I am)
TTITLE10=Pamela Anton - Somewhere between hello and goodbe
EXTD=
EXTT0=
EXTT1=
EXTT2=
EXTT3=
EXTT4=
EXTT5=
EXTT6=
EXTT7=
EXTT8=
EXTT9=
EXTT10=
PLAYORDER=
